<!-- DroidDock Icon Option 5: Technical/Professional -->
<!-- Blueprint/technical drawing style with precise lines -->

<svg width="512" height="512" viewBox="0 0 512 512" xmlns="http://www.w3.org/2000/svg">
  <!-- Background -->
  <rect width="512" height="512" rx="115" fill="#000000"/>
  
  <!-- Phone with technical details -->
  <g stroke="#ffffff" stroke-width="5" fill="none">
    <!-- Outer frame -->
    <rect x="160" y="135" width="125" height="210" rx="12"/>
    
    <!-- Inner screen -->
    <rect x="170" y="155" width="105" height="165" rx="6"/>
    
    <!-- Corner brackets (technical drawing style) -->
    <path d="M 175 160 L 170 160 L 170 170"/>
    <path d="M 270 160 L 275 160 L 275 170"/>
    <path d="M 175 315 L 170 315 L 170 305"/>
    <path d="M 270 315 L 275 315 L 275 305"/>
    
    <!-- Sensor array -->
    <line x1="210" y1="145" x2="235" y2="145" stroke-width="2"/>
    <circle cx="205" cy="145" r="2" fill="#ffffff"/>
    <circle cx="240" cy="145" r="2" fill="#ffffff"/>
    
    <!-- Port -->
    <rect x="215" y="330" width="15" height="5" rx="1"/>
  </g>
  
  <!-- Android indicators -->
  <g stroke="#ffffff" stroke-width="5">
    <line x1="190" y1="130" x2="190" y2="115" stroke-linecap="square"/>
    <line x1="255" y1="130" x2="255" y2="115" stroke-linecap="square"/>
    <rect x="187" y="110" width="6" height="6" fill="#ffffff"/>
    <rect x="252" y="110" width="6" height="6" fill="#ffffff"/>
  </g>
  
  <!-- Dock with USB connection -->
  <g stroke="#ffffff" stroke-width="5" fill="none">
    <!-- Dock base -->
    <rect x="195" y="365" width="180" height="30" rx="6"/>
    
    <!-- USB port detail -->
    <rect x="260" y="375" width="20" height="12" rx="2"/>
    <rect x="265" y="378" width="10" height="6" fill="#ffffff"/>
    
    <!-- Support feet -->
    <line x1="210" y1="400" x2="210" y2="410"/>
    <line x1="360" y1="400" x2="360" y2="410"/>
    <line x1="205" y1="410" x2="215" y2="410" stroke-linecap="round"/>
    <line x1="355" y1="410" x2="365" y2="410" stroke-linecap="round"/>
  </g>
  
  <!-- Connection cable -->
  <g stroke="#ffffff" stroke-width="4" fill="none">
    <path d="M 222 345 L 222 355 Q 222 360, 227 362 L 265 375" stroke-linecap="round"/>
    <rect x="219" y="338" width="6" height="7" rx="1"/>
  </g>
  
  <!-- File system tree -->
  <g transform="translate(310, 175)" stroke="#ffffff" stroke-width="4" fill="none">
    <!-- Folder structure -->
    <rect x="0" y="0" width="70" height="55" rx="4"/>
    <path d="M 0 8 L 25 8 L 28 0 L 48 0 L 51 8 L 70 8"/>
    
    <!-- Tree structure inside -->
    <line x1="15" y1="20" x2="55" y2="20" stroke-width="2"/>
    <line x1="20" y1="30" x2="50" y2="30" stroke-width="2"/>
    <line x1="20" y1="40" x2="45" y2="40" stroke-width="2"/>
    <line x1="15" y1="25" x2="20" y2="30" stroke-width="1"/>
    <line x1="15" y1="25" x2="20" y2="40" stroke-width="1"/>
  </g>
</svg>
